<?xml version="1.0" standalone="no"?>
<!DOCTYPE svg PUBLIC "-//W3C//DTD SVG 20010904//EN"
 "http://www.w3.org/TR/2001/REC-SVG-20010904/DTD/svg10.dtd">
<svg version="1.0" xmlns="http://www.w3.org/2000/svg"
 width="529.000000pt" height="525.000000pt" viewBox="0 0 529.000000 525.000000"
 preserveAspectRatio="xMidYMid meet">

<g transform="translate(0.000000,525.000000) scale(0.100000,-0.100000)"
fill="#000000" stroke="none">
<path d="M2648 5143 c6 -2 18 -2 25 0 6 3 1 5 -13 5 -14 0 -19 -2 -12 -5z"/>
<path d="M2520 5128 c-14 -6 -45 -12 -70 -14 -70 -3 -71 -3 -66 -12 3 -5 35
-5 72 -1 38 4 75 4 83 1 10 -4 12 -1 6 7 -4 8 -2 17 6 22 19 12 -1 10 -31 -3z"/>
<path d="M2346 5081 c-4 -5 3 -7 14 -4 23 6 26 13 6 13 -8 0 -17 -4 -20 -9z"/>
<path d="M2280 5070 c0 -5 7 -7 15 -4 8 4 15 8 15 10 0 2 -7 4 -15 4 -8 0 -15
-4 -15 -10z"/>
<path d="M2245 5060 c-3 -5 -1 -10 4 -10 6 0 11 5 11 10 0 6 -2 10 -4 10 -3 0
-8 -4 -11 -10z"/>
<path d="M2118 5043 c6 -2 18 -2 25 0 6 3 1 5 -13 5 -14 0 -19 -2 -12 -5z"/>
<path d="M3289 5004 c-5 -15 -8 -29 -5 -31 2 -2 8 10 14 26 13 38 5 41 -9 5z"/>
<path d="M1958 4993 c6 -2 18 -2 25 0 6 3 1 5 -13 5 -14 0 -19 -2 -12 -5z"/>
<path d="M2400 4984 c36 -8 100 -9 100 -2 0 5 -26 7 -57 7 -32 -1 -51 -3 -43
-5z"/>
<path d="M3266 4943 c-6 -14 -5 -15 5 -6 7 7 10 15 7 18 -3 3 -9 -2 -12 -12z"/>
<path d="M3680 4900 c0 -10 15 -21 115 -85 69 -45 111 -55 133 -33 15 15 16
42 1 32 -6 -3 -25 4 -42 17 l-32 23 23 -28 c27 -35 29 -56 4 -33 -10 10 -26
17 -35 17 -9 0 -17 4 -17 8 0 5 -11 15 -25 22 -16 8 -24 19 -20 28 4 10 0 12
-11 8 -9 -4 -32 3 -51 14 -39 23 -43 24 -43 10z"/>
<path d="M3820 4890 c20 -13 33 -13 25 0 -3 6 -14 10 -23 10 -15 0 -15 -2 -2
-10z"/>
<path d="M3300 4880 c0 -5 7 -10 16 -10 8 0 12 5 9 10 -3 6 -10 10 -16 10 -5
0 -9 -4 -9 -10z"/>
<path d="M1925 4800 c3 -5 8 -10 11 -10 2 0 4 5 4 10 0 6 -5 10 -11 10 -5 0
-7 -4 -4 -10z"/>
<path d="M3363 4785 c-8 -9 -9 -16 -3 -20 6 -3 13 1 16 10 9 21 2 26 -13 10z"/>
<path d="M2564 4782 c-8 -5 -3 -14 15 -27 14 -10 21 -13 15 -5 -6 8 -13 20
-15 27 -2 7 -9 9 -15 5z"/>
<path d="M3260 4746 c0 -7 8 -20 18 -27 15 -13 16 -12 4 3 -8 9 -11 22 -7 28
3 5 1 10 -4 10 -6 0 -11 -6 -11 -14z"/>
<path d="M3290 4746 c0 -2 7 -7 16 -10 8 -3 12 -2 9 4 -6 10 -25 14 -25 6z"/>
<path d="M3330 4720 c0 -11 2 -20 4 -20 2 0 6 9 9 20 3 11 1 20 -4 20 -5 0 -9
-9 -9 -20z"/>
<path d="M2580 4700 c0 -5 4 -10 9 -10 6 0 13 5 16 10 3 6 -1 10 -9 10 -9 0
-16 -4 -16 -10z"/>
<path d="M1615 4690 c3 -5 8 -10 11 -10 2 0 4 5 4 10 0 6 -5 10 -11 10 -5 0
-7 -4 -4 -10z"/>
<path d="M2538 4683 c6 -2 18 -2 25 0 6 3 1 5 -13 5 -14 0 -19 -2 -12 -5z"/>
<path d="M3260 4655 c10 -12 9 -15 -6 -16 -11 -1 -7 -4 11 -9 17 -5 45 -13 63
-18 19 -6 30 -7 27 -1 -4 5 -15 9 -26 9 -10 0 -29 11 -41 25 -23 26 -49 36
-28 10z"/>
<path d="M960 4580 c0 -5 7 -7 15 -4 8 4 15 8 15 10 0 2 -7 4 -15 4 -8 0 -15
-4 -15 -10z"/>
<path d="M3300 4583 c-8 -4 -19 -12 -25 -19 -6 -8 -44 -15 -97 -18 -93 -5
-103 -8 -130 -42 -19 -23 -115 -47 -155 -40 -13 3 -23 1 -23 -5 0 -5 -7 -9
-15 -9 -8 0 -15 -5 -15 -10 0 -7 6 -7 19 0 11 5 35 10 53 10 53 0 111 20 140
48 24 22 40 26 120 32 69 6 103 13 131 30 20 12 37 24 37 26 0 6 -22 4 -40 -3z"/>
<path d="M4400 4516 c0 -10 4 -14 12 -10 6 4 8 3 5 -3 -5 -8 -22 -7 -54 3 -54
16 -97 18 -88 4 4 -6 10 -8 15 -5 14 8 78 -28 83 -47 3 -10 14 -18 25 -18 11
0 22 -7 26 -15 3 -8 10 -15 16 -15 17 0 113 -74 149 -116 34 -38 34 -38 27 -9
-7 27 -98 136 -180 214 -28 27 -36 31 -36 17z"/>
<path d="M4224 4475 c-27 -35 -27 -37 -21 -149 4 -85 2 -120 -8 -140 -20 -37
2 -32 25 7 20 32 22 80 5 119 -4 9 -4 22 0 27 3 6 1 20 -5 31 -7 13 -7 20 -1
20 6 0 8 7 5 15 -8 21 4 67 16 60 6 -4 7 1 3 11 -5 13 -3 16 10 11 11 -4 14
-2 10 9 -7 19 -8 19 -39 -21z"/>
<path d="M3338 4383 c6 -2 18 -2 25 0 6 3 1 5 -13 5 -14 0 -19 -2 -12 -5z"/>
<path d="M2800 4369 c0 -5 5 -7 10 -4 6 3 10 8 10 11 0 2 -4 4 -10 4 -5 0 -10
-5 -10 -11z"/>
<path d="M3350 4344 c15 -17 41 -19 34 -1 -2 7 -14 13 -25 14 -17 2 -18 -1 -9
-13z"/>
<path d="M3610 4311 c0 -7 -34 -18 -77 -23 -7 -1 -13 -5 -13 -10 0 -13 -21 -9
-67 13 -23 11 -51 19 -60 16 -12 -2 2 -13 42 -31 l60 -28 55 17 c30 10 61 22
68 27 15 12 16 28 2 28 -5 0 -10 -4 -10 -9z"/>
<path d="M2600 4283 c14 -3 34 -12 45 -21 20 -17 20 -17 1 6 -12 13 -29 21
-45 21 l-26 -2 25 -4z"/>
<path d="M4590 4230 c21 -39 37 -52 43 -36 8 21 -4 61 -14 45 -6 -10 -11 -10
-25 2 -16 13 -16 12 -4 -11z"/>
<path d="M4430 4230 c0 -6 7 -25 16 -41 14 -28 14 -32 -1 -49 -28 -31 -2 -111
49 -151 26 -20 33 -52 17 -77 -5 -8 -2 -31 7 -56 17 -48 11 -81 -14 -72 -12 4
-15 2 -11 -9 9 -22 -14 -30 -30 -10 -12 18 -13 17 -13 -7 0 -35 -18 -45 -28
-17 -5 12 -11 18 -14 13 -4 -5 2 -20 13 -33 15 -18 22 -21 33 -12 10 9 21 7
44 -6 29 -17 31 -17 50 0 24 22 59 22 65 0 4 -16 5 -16 6 1 1 12 6 16 17 12
12 -5 14 -1 8 17 -3 12 -12 29 -18 37 -16 19 -19 67 -6 75 6 4 19 -4 30 -17
22 -26 25 -20 8 17 -8 18 -17 24 -30 19 -13 -4 -21 2 -28 22 -12 31 -14 28 27
42 23 7 35 8 39 0 4 -7 9 -6 15 3 9 16 -7 39 -27 39 -8 0 -23 -5 -33 -12 -15
-9 -24 -8 -46 6 -14 9 -29 25 -32 34 -4 9 -10 19 -14 22 -4 3 -18 27 -32 55
-17 33 -23 54 -17 65 12 22 7 65 -10 84 -14 18 -40 21 -40 6z m133 -382 c7
-25 3 -33 -12 -23 -13 8 -15 45 -2 45 5 0 11 -10 14 -22z"/>
<path d="M916 4211 c-4 -7 -5 -15 -2 -18 9 -9 19 4 14 18 -4 11 -6 11 -12 0z"/>
<path d="M4640 4191 c0 -5 5 -13 10 -16 6 -3 10 -2 10 4 0 5 -4 13 -10 16 -5
3 -10 2 -10 -4z"/>
<path d="M4630 4166 c0 -3 9 -10 20 -16 11 -6 20 -8 20 -6 0 3 -9 10 -20 16
-11 6 -20 8 -20 6z"/>
<path d="M4156 4128 c-22 -30 -20 -54 8 -124 40 -102 49 -115 87 -135 33 -17
37 -23 42 -66 2 -26 7 -58 10 -71 3 -12 2 -20 -2 -18 -4 3 -20 -8 -35 -23 -32
-33 -34 -32 -108 44 -31 32 -36 35 -28 15 6 -14 13 -33 16 -42 4 -10 15 -18
25 -18 25 0 36 -27 20 -51 -9 -15 -8 -19 4 -19 21 0 19 -17 -4 -29 -17 -10
-85 -7 -119 4 -7 3 -15 -1 -18 -8 -2 -7 -21 -12 -44 -12 -22 0 -40 -2 -40 -5
1 -19 22 -31 58 -33 22 0 38 -5 36 -9 -3 -4 2 -8 10 -8 9 0 16 -4 16 -10 0 -5
7 -10 15 -10 13 0 14 4 5 21 -16 28 -5 35 27 18 20 -11 27 -11 30 -1 3 6 11
12 19 12 8 0 14 9 14 19 0 11 15 28 35 40 24 14 35 28 35 44 0 26 32 48 74 50
29 2 28 14 -5 77 -25 45 -24 71 2 94 18 15 23 15 30 5 5 -8 9 -22 9 -31 0 -10
5 -18 11 -18 7 0 9 -10 5 -25 -6 -24 -5 -25 16 -13 13 7 24 13 26 14 6 2 -91
144 -99 144 -5 0 -13 -9 -19 -20 -6 -11 -21 -20 -33 -20 -32 1 -72 34 -64 54
4 9 2 15 -6 13 -7 -1 -11 7 -10 21 2 12 -2 22 -7 22 -26 0 -46 88 -27 118 14
21 -1 13 -17 -10z"/>
<path d="M3906 3964 c-4 -9 -13 -14 -21 -10 -13 5 -13 0 1 -32 9 -20 19 -47
21 -59 7 -28 33 -30 33 -3 0 11 -5 20 -11 20 -6 0 -9 8 -7 18 2 9 -3 23 -12
30 -13 11 -13 13 3 23 18 11 23 29 8 29 -5 0 -12 -7 -15 -16z"/>
<path d="M3993 3963 c-21 -8 -15 -18 12 -19 21 -2 24 1 14 12 -6 8 -12 14 -13
13 0 0 -7 -3 -13 -6z"/>
<path d="M948 3909 c-10 -5 -18 -15 -18 -22 0 -8 3 -9 8 -1 4 6 16 16 27 22
11 6 16 11 10 11 -5 0 -18 -4 -27 -10z"/>
<path d="M4040 3895 c-8 -22 -8 -30 2 -37 22 -13 26 -9 23 22 -3 42 -13 48
-25 15z"/>
<path d="M3953 3830 c-1 -11 2 -18 8 -15 11 7 12 35 1 35 -4 0 -8 -9 -9 -20z"/>
<path d="M1110 3830 c0 -5 5 -10 11 -10 5 0 7 5 4 10 -3 6 -8 10 -11 10 -2 0
-4 -4 -4 -10z"/>
<path d="M4081 3813 c6 -18 15 -33 20 -33 15 0 10 16 -11 41 l-20 24 11 -32z"/>
<path d="M1180 3800 c0 -5 5 -10 11 -10 5 0 7 5 4 10 -3 6 -8 10 -11 10 -2 0
-4 -4 -4 -10z"/>
<path d="M3958 3781 c-12 -12 -14 -21 -7 -34 14 -24 7 -62 -11 -62 -8 0 -21
-4 -27 -8 -7 -5 -13 -6 -13 -3 0 3 -11 1 -24 -4 -17 -6 -30 -4 -45 6 -19 14
-21 14 -21 -6 0 -29 40 -42 93 -30 61 14 66 13 73 -15 6 -24 24 -35 24 -15 0
6 10 14 22 19 20 7 20 8 -10 19 -33 11 -44 32 -17 32 8 0 15 5 15 10 0 6 -4
10 -10 10 -5 0 -10 9 -10 21 0 18 4 20 25 15 28 -7 30 -1 13 36 -14 29 -45 33
-70 9z"/>
<path d="M3808 3733 c3 -19 5 -33 7 -31 1 2 7 12 13 24 8 16 7 22 -7 31 -15 9
-16 7 -13 -24z"/>
<path d="M2117 3739 c7 -7 15 -10 18 -7 3 3 -2 9 -12 12 -14 6 -15 5 -6 -5z"/>
<path d="M2173 3733 c-15 -5 -17 -23 -4 -23 5 0 11 7 15 15 3 8 4 15 3 14 -1
0 -8 -3 -14 -6z"/>
<path d="M1230 3690 c34 -11 80 -12 80 -2 0 5 -24 9 -52 9 -40 0 -47 -1 -28
-7z"/>
<path d="M1728 3693 c6 -2 18 -2 25 0 6 3 1 5 -13 5 -14 0 -19 -2 -12 -5z"/>
<path d="M1114 3648 c-7 -10 45 -9 71 2 15 6 8 8 -23 7 -24 -1 -46 -5 -48 -9z"/>
<path d="M1058 3628 c7 -7 16 -7 28 0 14 8 13 10 -10 10 -18 0 -24 -4 -18 -10z"/>
<path d="M4000 3483 c0 -35 11 -53 42 -69 37 -19 68 -70 68 -112 0 -30 -2 -33
-22 -27 -22 6 -22 6 -4 -9 26 -21 56 -20 57 2 4 63 -1 116 -11 122 -6 4 -17
18 -23 30 -7 13 -26 28 -44 34 -18 6 -39 20 -47 31 -15 20 -15 20 -16 -2z"/>
<path d="M161 3403 c-1 -12 4 -25 9 -28 12 -7 12 2 0 30 -8 19 -9 19 -9 -2z"/>
<path d="M188 3263 c-5 -23 -6 -47 -3 -55 2 -7 6 -64 9 -126 2 -62 7 -116 10
-119 3 -4 6 -17 6 -30 0 -13 4 -22 10 -18 9 5 25 -42 34 -95 2 -14 4 -1 5 28
0 29 -5 67 -13 85 -17 42 -45 221 -49 307 -2 62 -2 63 -9 23z"/>
<path d="M3959 3287 c5 -5 19 -7 32 -5 20 3 19 5 -9 9 -20 3 -29 2 -23 -4z"/>
<path d="M1145 3279 c-11 -17 -2 -18 19 -3 17 12 17 14 4 14 -9 0 -20 -5 -23
-11z"/>
<path d="M4559 3283 c-4 -29 6 -62 27 -84 13 -14 24 -32 24 -40 0 -7 29 -42
65 -77 36 -35 65 -70 65 -77 0 -20 -17 -19 -29 2 -5 10 -13 14 -17 10 -5 -4
-3 -16 3 -27 10 -14 9 -25 -3 -49 -9 -17 -20 -29 -25 -26 -5 4 -9 -8 -9 -24 0
-17 -3 -31 -8 -31 -15 0 -82 62 -77 71 3 4 26 6 50 2 44 -6 45 -5 45 23 0 16
-7 40 -16 52 -25 36 -60 72 -70 72 -6 0 -18 14 -27 30 -10 17 -22 30 -27 30
-5 0 -13 15 -20 34 -6 18 -22 43 -35 56 -22 20 -25 21 -31 6 -3 -9 -11 -16
-17 -16 -6 0 -18 -7 -27 -15 -15 -13 -20 -13 -47 0 -42 21 -66 11 -58 -25 6
-28 -10 -49 -38 -54 -8 -1 -27 -17 -43 -35 -23 -28 -26 -36 -16 -52 11 -16 6
-24 -30 -59 -39 -37 -46 -40 -83 -35 -26 4 -46 2 -58 -7 -24 -18 -12 -48 19
-48 13 0 34 -5 47 -11 19 -9 33 -6 77 15 55 27 97 31 216 23 34 -2 67 -8 73
-12 7 -3 19 -1 28 6 13 11 17 10 28 -5 7 -9 16 -17 19 -17 15 2 16 0 6 -20 -9
-15 -8 -24 0 -34 9 -11 7 -22 -9 -49 l-22 -34 31 -18 c16 -10 30 -22 30 -26 0
-4 6 -8 13 -8 32 0 77 -32 77 -54 0 -16 10 -27 35 -39 20 -9 38 -24 41 -32 12
-31 34 -16 34 23 0 71 47 83 104 27 20 -19 43 -35 51 -35 9 0 18 -6 21 -14 9
-23 35 -28 55 -10 17 15 19 15 25 0 8 -21 31 -21 38 2 22 78 27 219 9 227 -7
2 -13 -2 -13 -10 0 -22 -27 -18 -33 5 -6 23 -27 27 -27 5 0 -8 -5 -15 -10 -15
-6 0 -13 7 -16 15 -4 8 -12 15 -20 15 -9 0 -14 11 -14 28 0 16 -3 32 -7 36 -5
4 -9 20 -10 34 -3 50 -15 91 -29 103 -17 14 -35 3 -27 -16 3 -9 -1 -15 -11
-15 -9 0 -16 5 -16 12 0 6 -2 9 -5 6 -6 -6 23 -65 36 -73 14 -9 11 -55 -5 -61
-8 -3 -12 -13 -9 -25 3 -10 1 -19 -3 -19 -22 1 -44 30 -47 61 -4 38 -31 104
-47 114 -5 3 -10 26 -10 51 0 35 -5 49 -26 67 -64 55 -92 88 -107 124 -9 21
-16 30 -16 20 -1 -24 -21 -11 -21 14 0 18 -19 28 -21 12z m-66 -150 c3 -27 8
-60 10 -75 3 -15 3 -36 0 -47 -6 -24 -34 -36 -45 -19 -11 19 -10 96 3 100 7 2
7 12 -1 32 -8 21 -7 32 1 42 19 24 27 16 32 -33z m406 -364 c33 -11 42 -29 15
-29 -21 0 -54 18 -54 30 0 12 0 12 39 -1z m168 -44 c-7 -16 -37 -21 -37 -5 0
10 32 31 39 25 2 -2 1 -11 -2 -20z"/>
<path d="M4020 3276 c0 -2 9 -6 20 -9 11 -3 18 -1 14 4 -5 9 -34 13 -34 5z"/>
<path d="M5032 3264 c-15 -17 -12 -46 5 -51 8 -3 12 7 11 31 -1 20 -2 36 -2
36 -1 -1 -7 -7 -14 -16z"/>
<path d="M3864 3215 c5 -40 2 -78 -7 -114 -23 -88 2 -161 59 -175 43 -11 29
-58 -27 -87 -44 -22 -83 -77 -93 -130 -7 -41 -25 -59 -76 -80 -33 -13 -105
-82 -153 -147 -12 -17 -41 -55 -63 -84 -31 -40 -43 -66 -47 -103 -9 -73 -13
-91 -19 -85 -3 3 -15 -3 -25 -13 -11 -9 -22 -15 -25 -12 -2 3 -5 -2 -5 -10 0
-12 5 -11 23 6 16 15 24 17 29 8 5 -7 4 -10 -2 -6 -6 4 -20 -4 -33 -18 -13
-14 -30 -22 -42 -20 -16 3 -18 2 -8 -10 10 -12 8 -13 -10 -10 -17 3 -19 1 -11
-9 9 -11 5 -13 -19 -11 -24 2 -28 0 -19 -11 8 -10 7 -12 -9 -9 -12 2 -29 -6
-42 -20 -13 -14 -27 -22 -33 -18 -6 4 -7 1 -2 -6 5 -9 14 -6 34 11 l26 23 -24
-27 c-14 -16 -31 -25 -43 -23 -15 3 -17 1 -9 -9 9 -11 6 -13 -11 -12 -13 0
-22 -4 -21 -10 1 -7 -9 -10 -26 -9 -18 1 -28 -3 -28 -11 0 -11 4 -11 16 -2 11
9 11 6 -2 -8 -12 -15 -27 -21 -48 -19 -26 2 -28 1 -17 -13 8 -9 8 -13 2 -9 -7
4 -17 0 -24 -7 -6 -8 -20 -13 -32 -11 -15 3 -17 1 -9 -9 9 -11 6 -13 -19 -11
-16 1 -35 -4 -41 -11 -6 -8 -16 -11 -22 -7 -6 3 -7 1 -3 -6 6 -9 12 -9 24 1
15 11 15 11 5 -3 -9 -11 -26 -15 -53 -14 -21 1 -37 -2 -34 -7 3 -4 9 -6 14 -3
5 3 11 1 14 -4 3 -5 -8 -7 -24 -6 -23 2 -28 0 -20 -10 7 -9 1 -11 -30 -10 -21
1 -37 -2 -34 -7 3 -4 9 -6 14 -3 5 3 11 1 14 -3 3 -5 -13 -8 -34 -7 -35 2 -38
0 -27 -13 7 -10 8 -13 1 -9 -7 4 -17 1 -23 -7 -6 -7 -28 -12 -51 -11 -21 1
-37 -2 -34 -7 3 -4 10 -5 16 -2 6 4 8 3 5 -3 -4 -5 -24 -9 -46 -8 -22 1 -38
-2 -35 -7 3 -4 10 -5 16 -2 6 4 8 3 5 -3 -4 -5 -24 -9 -46 -8 -22 1 -38 -2
-35 -7 3 -4 10 -5 16 -2 6 4 8 3 5 -3 -4 -5 -24 -9 -46 -8 -22 1 -38 -2 -35
-7 3 -4 10 -5 16 -2 6 4 8 2 5 -4 -4 -5 -15 -9 -25 -7 -9 1 -23 -2 -31 -8 -17
-14 -43 -18 -35 -6 3 5 9 7 14 4 5 -3 11 -1 14 4 8 12 -18 8 -35 -5 -8 -6 -31
-10 -51 -9 -20 1 -35 -2 -32 -7 3 -5 9 -6 14 -3 5 3 11 1 14 -4 8 -12 -45 -6
-72 8 -12 6 -22 9 -22 5 0 -4 -8 0 -18 9 -10 10 -21 14 -24 11 -12 -12 -98 35
-98 53 0 10 -9 32 -20 48 -11 17 -20 38 -20 47 0 10 -14 32 -30 50 -17 18 -28
25 -24 16 3 -9 12 -19 21 -22 8 -4 13 -13 9 -21 -8 -21 14 -75 30 -75 8 0 14
-3 14 -7 -1 -13 -37 -53 -48 -53 -5 0 -17 -11 -26 -25 -15 -23 -15 -24 1 -18
10 4 23 13 28 21 8 10 21 12 49 7 34 -7 37 -10 33 -34 -5 -24 -4 -24 9 -7 13
18 16 18 78 -10 45 -20 66 -35 68 -49 2 -13 11 -20 28 -21 14 -1 38 -6 53 -13
16 -6 41 -11 57 -11 21 0 41 -13 77 -51 33 -34 61 -53 84 -58 31 -6 34 -10 40
-49 7 -52 -12 -87 -68 -128 -21 -16 -50 -41 -65 -57 -15 -16 -31 -26 -36 -23
-12 7 -22 -17 -28 -66 -3 -21 -12 -55 -22 -75 -9 -21 -17 -43 -17 -48 0 -6
-13 -24 -28 -40 -15 -17 -27 -35 -27 -41 0 -16 -38 -27 -86 -24 -23 1 -45 -3
-49 -9 -3 -6 -13 -11 -22 -11 -9 0 -34 -8 -54 -18 -36 -16 -38 -19 -39 -63 0
-31 -5 -49 -14 -52 -8 -3 -20 -18 -28 -33 -7 -15 -19 -29 -26 -30 -7 -1 -8 0
-2 3 5 2 10 10 10 16 0 12 -25 -8 -25 -21 -1 -14 -29 -57 -47 -74 -19 -16 -28
-15 -93 7 -17 6 -18 5 -5 -7 29 -26 41 -57 30 -77 -10 -19 -72 -37 -90 -26
-13 8 -13 -1 0 -26 13 -24 -12 -38 -35 -19 -12 10 -15 9 -15 -4 0 -9 5 -17 10
-17 6 -1 15 -2 22 -3 6 0 13 -7 16 -15 3 -9 0 -11 -8 -6 -9 6 -10 0 -5 -24 4
-20 3 -31 -4 -31 -21 0 -11 -20 18 -34 24 -13 29 -22 29 -52 0 -28 7 -42 34
-64 18 -16 45 -34 60 -41 15 -6 26 -15 23 -19 -6 -10 -65 11 -65 23 0 4 -4 6
-10 2 -22 -14 -213 161 -215 198 -1 11 -6 22 -12 25 -6 4 -18 22 -27 40 -9 17
-21 32 -26 32 -5 0 -19 19 -31 42 -12 24 -27 50 -34 58 -7 8 -15 42 -17 76 -2
35 -13 79 -26 105 -14 26 -27 78 -33 128 -5 46 -14 91 -19 101 -6 10 -10 34
-10 53 0 49 -31 139 -55 160 -11 9 -55 43 -98 73 -43 31 -83 67 -88 81 -8 21
-78 137 -128 212 -9 13 -20 31 -26 40 -5 8 -20 24 -32 34 -13 10 -22 21 -21
25 1 4 -4 20 -11 37 -11 27 -10 32 10 48 23 19 23 19 4 35 -30 25 -21 106 16
143 10 10 19 25 19 31 0 19 -63 -61 -77 -96 -6 -17 -12 -48 -12 -68 -2 -73
-26 -101 -62 -71 -8 6 -22 9 -31 8 -10 -2 -16 2 -15 8 1 7 -11 12 -30 11 -24
0 -30 3 -23 11 7 9 0 11 -30 10 -30 -1 -37 1 -30 10 7 9 0 11 -30 10 -21 -1
-37 2 -34 7 3 4 9 6 14 3 5 -3 11 -1 14 4 3 5 -8 7 -24 6 -17 -1 -28 2 -27 9
1 6 -12 11 -30 10 -18 0 -30 3 -27 8 3 5 9 6 14 3 5 -3 11 -1 15 4 3 6 -3 8
-14 6 -11 -2 -25 2 -31 9 -6 8 -24 12 -40 11 -25 -2 -28 0 -19 11 8 10 6 12
-10 9 -12 -2 -20 1 -18 8 1 7 -10 12 -30 11 -18 0 -30 3 -27 8 3 5 9 6 14 3 5
-3 11 -1 14 4 3 5 -8 7 -24 6 -17 -1 -28 2 -27 8 1 6 -7 11 -19 12 -11 0 -28
6 -36 12 -8 7 -19 9 -24 5 -4 -4 -2 1 5 10 11 15 10 17 -8 13 -12 -2 -19 0
-17 4 3 5 -3 16 -13 25 -14 13 -21 14 -27 5 -4 -7 -3 -10 4 -5 6 3 13 2 16 -3
8 -13 -19 -8 -36 7 -8 6 -19 8 -23 4 -5 -4 -5 -1 -1 6 6 9 11 10 20 3 9 -8 13
-7 13 3 0 9 -10 12 -29 11 -25 -2 -27 -1 -16 14 7 9 8 13 3 8 -4 -4 -19 3 -32
15 -26 24 -53 32 -53 16 0 -6 7 -7 16 -4 14 5 15 4 5 -8 -10 -12 -7 -35 13
-113 83 -320 235 -633 444 -913 105 -141 360 -398 495 -499 398 -297 843 -472
1325 -522 164 -17 514 -6 668 20 303 52 606 156 849 293 113 64 277 173 370
246 116 91 354 338 446 462 99 133 250 370 236 370 -2 0 -35 -39 -74 -87 -39
-49 -83 -102 -99 -119 -58 -62 -114 -133 -114 -143 0 -6 -16 -33 -35 -60 -19
-26 -35 -53 -35 -59 0 -6 -8 -17 -18 -24 -9 -7 -29 -29 -44 -48 -43 -57 -116
-130 -130 -130 -24 0 -146 -89 -182 -133 -24 -29 -56 -53 -94 -70 -32 -15 -69
-38 -82 -52 -13 -14 -29 -25 -36 -25 -6 0 -17 -6 -23 -13 -6 -8 -29 -20 -51
-27 -22 -7 -40 -17 -40 -21 0 -11 -55 -35 -135 -60 -65 -20 -140 -25 -150 -9
-7 11 30 50 48 50 8 0 19 12 26 26 6 15 23 35 36 46 14 11 25 27 25 37 0 9 23
43 50 76 28 33 50 63 50 67 0 4 6 8 13 8 12 0 47 98 47 132 0 16 165 188 180
188 13 0 40 54 40 79 0 10 5 21 12 23 16 6 47 125 41 157 -17 93 -15 119 11
154 14 19 26 39 26 45 0 7 4 12 8 12 17 0 34 48 28 77 -6 27 -10 29 -51 28
-44 -2 -45 -1 -45 30 0 18 -8 39 -18 48 -21 19 -92 23 -108 7 -6 -6 -29 -12
-52 -14 -23 -3 -46 -7 -51 -10 -5 -3 -25 1 -45 9 -42 18 -91 19 -136 3 -33
-11 -34 -10 -87 48 -29 32 -65 71 -79 86 -20 20 -25 33 -20 51 4 16 -1 33 -12
48 -29 39 -45 76 -38 88 4 6 1 9 -7 5 -27 -10 -58 55 -38 80 6 7 6 17 1 26
-15 23 -12 38 10 45 11 3 20 11 20 16 0 6 9 29 20 52 13 27 18 52 15 69 -4 15
-1 37 6 49 9 19 9 25 -5 34 -22 16 -20 41 4 65 11 11 20 24 20 29 0 5 18 27
40 50 22 22 40 48 40 56 0 8 11 22 26 31 14 9 32 30 40 45 8 16 21 29 30 29
27 0 103 40 114 59 5 11 10 35 10 54 0 19 7 40 15 47 8 7 15 18 15 25 0 12 57
45 77 45 5 0 19 19 31 42 20 41 21 44 4 73 -10 16 -27 30 -37 31 -57 2 -57 3
-53 34 3 17 -1 35 -8 41 -10 8 -10 18 2 51 19 56 18 132 -2 149 -15 12 -16 8
-10 -46z m-3753 -1162 c13 -16 12 -17 -3 -4 -10 7 -18 15 -18 17 0 8 8 3 21
-13z m383 -221 c3 -5 -1 -9 -9 -9 -8 0 -12 4 -9 9 3 4 7 8 9 8 2 0 6 -4 9 -8z
m1461 -1652 c3 -5 -1 -10 -9 -10 -9 0 -16 5 -16 10 0 6 4 10 9 10 6 0 13 -4
16 -10z"/>
<path d="M4949 3253 c-1 -10 -1 -21 0 -25 0 -3 -3 -37 -8 -74 -9 -76 2 -120
32 -130 12 -4 24 1 33 15 20 28 29 27 61 -9 31 -36 63 -40 63 -9 0 27 -37 104
-67 142 -19 23 -24 26 -29 13 -9 -24 -23 -19 -30 9 -3 14 -10 25 -15 25 -5 0
-6 7 -3 15 3 8 -1 21 -9 30 -20 20 -27 19 -28 -2z"/>
<path d="M5142 3250 c0 -14 2 -19 5 -12 2 6 2 18 0 25 -3 6 -5 1 -5 -13z"/>
<path d="M1049 3220 c-31 -22 -60 -47 -63 -57 -5 -13 1 -10 21 9 15 14 50 40
77 57 28 17 43 31 35 30 -7 0 -39 -18 -70 -39z"/>
<path d="M153 3175 c0 -27 2 -38 4 -22 2 15 2 37 0 50 -2 12 -4 0 -4 -28z"/>
<path d="M5150 3183 c0 -20 7 -66 16 -102 8 -36 18 -77 21 -91 3 -14 7 -20 10
-13 5 13 -36 243 -43 243 -2 0 -4 -17 -4 -37z"/>
<path d="M724 3151 c-16 -16 1 -26 36 -23 23 2 47 -1 55 -8 12 -10 15 -9 15 3
0 9 -4 19 -10 22 -12 7 -89 12 -96 6z"/>
<path d="M560 3137 c0 -14 -28 -38 -41 -35 -15 4 -39 -39 -38 -67 0 -17 2 -16
10 5 11 28 80 80 107 80 9 -1 28 -7 42 -15 34 -19 60 -19 60 1 0 13 -3 14 -15
4 -12 -10 -16 -9 -21 4 -3 9 -14 16 -24 16 -11 0 -22 4 -25 10 -7 12 -55 9
-55 -3z"/>
<path d="M861 3106 c-9 -11 -7 -15 9 -19 11 -3 24 -16 29 -29 l10 -23 0 23 c1
12 -3 22 -9 22 -5 0 -10 9 -10 20 0 23 -13 26 -29 6z"/>
<path d="M141 3095 c0 -11 6 -38 14 -60 13 -38 14 -39 14 -10 0 35 -27 103
-28 70z"/>
<path d="M4932 3004 c-11 -12 -9 -14 7 -14 23 0 36 16 18 23 -6 2 -18 -2 -25
-9z"/>
<path d="M164 2944 c10 -53 22 -63 18 -14 -2 22 -9 43 -14 47 -7 4 -8 -7 -4
-33z"/>
<path d="M462 2955 c-7 -14 -12 -34 -12 -43 1 -9 7 1 15 23 16 45 14 58 -3 20z"/>
<path d="M910 2925 c0 -32 49 -60 64 -36 3 4 -6 6 -19 3 -18 -3 -25 0 -25 11
0 9 -4 19 -10 22 -5 3 -10 3 -10 0z"/>
<path d="M5202 2910 c0 -14 2 -19 5 -12 2 6 2 18 0 25 -3 6 -5 1 -5 -13z"/>
<path d="M4830 2906 c0 -2 8 -10 18 -17 15 -13 16 -12 3 4 -13 16 -21 21 -21
13z"/>
<path d="M443 2845 c0 -22 2 -30 4 -17 2 12 2 30 0 40 -3 9 -5 -1 -4 -23z"/>
<path d="M5213 2825 c0 -22 2 -30 4 -17 2 12 2 30 0 40 -3 9 -5 -1 -4 -23z"/>
<path d="M241 2760 c-1 -53 55 -135 144 -207 29 -24 50 -33 77 -33 33 0 39 -5
60 -41 16 -29 40 -50 84 -75 67 -37 84 -57 104 -119 12 -36 104 -145 123 -145
4 0 20 -9 35 -20 27 -20 62 -19 62 1 0 5 6 9 13 9 20 0 43 -66 42 -125 -1 -30
2 -55 6 -55 8 0 23 32 20 44 -1 5 -3 33 -5 63 -2 32 -10 60 -20 72 -9 10 -14
25 -11 33 3 8 -1 21 -10 28 -13 11 -19 10 -35 -5 -14 -13 -17 -22 -10 -30 20
-24 -16 -24 -42 0 -14 13 -33 25 -44 27 -10 2 -25 16 -32 31 -8 16 -21 31 -30
35 -26 9 -42 29 -42 50 0 21 -15 54 -40 87 -16 21 -55 47 -106 70 -19 9 -37
28 -49 55 -19 43 -49 68 -60 50 -14 -23 -48 -6 -113 58 -71 69 -99 107 -112
151 -8 24 -8 24 -9 -9z"/>
<path d="M844 2770 c-36 -14 -41 -33 -7 -26 33 8 143 -42 166 -74 9 -13 17
-16 27 -10 12 7 11 10 -4 16 -9 4 -22 18 -27 31 -5 13 -13 22 -19 18 -12 -7
-102 40 -93 49 9 9 -18 6 -43 -4z"/>
<path d="M711 2702 c-6 -12 -11 -31 -10 -44 0 -17 4 -14 15 16 15 43 12 60 -5
28z"/>
<path d="M673 2580 c-6 -27 -7 -50 -3 -50 4 0 10 15 12 33 3 17 8 40 13 50 4
9 3 17 -3 17 -5 0 -14 -22 -19 -50z"/>
<path d="M1045 2614 c12 -9 35 -14 60 -12 57 4 40 22 -25 25 -51 2 -54 2 -35
-13z"/>
<path d="M1191 2574 c0 -11 3 -14 6 -6 3 7 2 16 -1 19 -3 4 -6 -2 -5 -13z"/>
<path d="M1012 2534 c10 -10 23 -14 34 -10 22 8 11 19 -24 24 -25 3 -26 2 -10
-14z"/>
<path d="M1154 2539 c-10 -4 -14 -8 -9 -9 32 -5 50 -10 78 -23 22 -11 44 -13
72 -8 56 10 55 10 53 19 -4 11 -72 11 -87 -1 -10 -8 -16 -7 -25 4 -14 19 -55
28 -82 18z"/>
<path d="M1425 2480 c3 -5 12 -10 20 -10 8 0 17 5 20 10 4 6 -5 10 -20 10 -15
0 -24 -4 -20 -10z"/>
<path d="M5032 2455 c0 -16 2 -22 5 -12 2 9 2 23 0 30 -3 6 -5 -1 -5 -18z"/>
<path d="M5206 2444 c-4 -15 -2 -32 3 -37 8 -8 11 0 11 26 0 44 -5 47 -14 11z"/>
<path d="M816 2419 c-10 -29 -13 -105 -6 -124 4 -12 9 7 13 55 6 70 3 99 -7
69z"/>
<path d="M5045 2381 c10 -48 8 -279 -4 -401 -6 -63 -13 -146 -15 -185 -2 -38
-8 -85 -12 -104 -11 -52 16 -36 48 29 36 71 34 83 -4 40 l-30 -35 7 30 c34
144 47 271 46 460 -1 133 -8 182 -28 189 -12 5 -13 0 -8 -23z"/>
<path d="M5202 2345 c0 -16 2 -22 5 -12 2 9 2 23 0 30 -3 6 -5 -1 -5 -18z"/>
<path d="M1233 2263 c-7 -3 -13 -12 -13 -21 0 -11 3 -13 8 -6 4 7 18 14 32 16
22 3 23 4 5 9 -11 3 -26 4 -32 2z"/>
<path d="M1056 2213 c-6 -14 -5 -15 5 -6 7 7 10 15 7 18 -3 3 -9 -2 -12 -12z"/>
<path d="M1215 2207 c-4 -10 -3 -23 4 -30 16 -16 23 -3 12 24 -8 22 -10 22
-16 6z"/>
<path d="M1635 2100 c-3 -5 -1 -10 4 -10 6 0 11 5 11 10 0 6 -2 10 -4 10 -3 0
-8 -4 -11 -10z"/>
<path d="M1730 2010 c0 -5 5 -10 11 -10 5 0 7 5 4 10 -3 6 -8 10 -11 10 -2 0
-4 -4 -4 -10z"/>
<path d="M286 1938 c3 -5 10 -6 15 -3 13 9 11 12 -6 12 -8 0 -12 -4 -9 -9z"/>
<path d="M3006 1918 c3 -5 10 -6 15 -3 13 9 11 12 -6 12 -8 0 -12 -4 -9 -9z"/>
<path d="M2686 1758 c3 -5 10 -6 15 -3 13 9 11 12 -6 12 -8 0 -12 -4 -9 -9z"/>
<path d="M826 1698 c3 -5 10 -6 15 -3 13 9 11 12 -6 12 -8 0 -12 -4 -9 -9z"/>
<path d="M2060 1619 c0 -5 5 -7 10 -4 6 3 10 8 10 11 0 2 -4 4 -10 4 -5 0 -10
-5 -10 -11z"/>
<path d="M1355 1230 c10 -11 20 -20 22 -20 2 0 -1 9 -7 20 -6 11 -16 20 -22
20 -6 0 -3 -9 7 -20z"/>
<path d="M4528 1117 c-15 -23 -29 -55 -33 -72 -5 -24 -2 -22 11 10 10 22 26
53 37 68 10 16 17 30 15 32 -2 2 -15 -15 -30 -38z"/>
<path d="M4485 944 c-9 -15 -12 -23 -6 -20 11 7 35 46 28 46 -3 0 -12 -12 -22
-26z"/>
<path d="M4446 894 c-23 -23 -20 -30 4 -9 11 10 20 20 20 22 0 7 -9 2 -24 -13z"/>
</g>
</svg>
